<svg width="196" height="53" viewBox="0 0 196 53" fill="none" xmlns="http://www.w3.org/2000/svg">
<path d="M24.9752 46.3089C14.1843 46.3089 5.42944 37.7627 5.42944 27.2289C5.42944 16.6952 14.1843 8.14893 24.9752 8.14893C35.766 8.14893 44.5209 16.6952 44.5209 27.2289C44.5209 37.7627 35.766 46.3089 24.9752 46.3089ZM23.5499 12.1902C14.5915 12.1902 7.26185 19.3452 7.26185 28.0902C7.26185 36.8352 14.5915 43.9902 23.5499 43.9902C32.5084 43.9902 39.838 36.8352 39.838 28.0902C39.838 19.3452 32.5084 12.1902 23.5499 12.1902Z" fill="#19A0E6"/>
<path d="M37.1911 26.5C44.6875 26.5 50.7645 20.5678 50.7645 13.25C50.7645 5.93223 44.6875 0 37.1911 0C29.6947 0 23.6177 5.93223 23.6177 13.25C23.6177 20.5678 29.6947 26.5 37.1911 26.5Z" fill="#19A0E6"/>
<path d="M9.43352 27.2949C14.6435 27.2949 18.867 23.172 18.867 18.0862C18.867 13.0003 14.6435 8.87744 9.43352 8.87744C4.22353 8.87744 0 13.0003 0 18.0862C0 23.172 4.22353 27.2949 9.43352 27.2949Z" fill="#19A0E6"/>
<path d="M10.7231 46.3085C14.7711 46.3085 18.0527 43.1051 18.0527 39.1535C18.0527 35.2019 14.7711 31.9985 10.7231 31.9985C6.67502 31.9985 3.39343 35.2019 3.39343 39.1535C3.39343 43.1051 6.67502 46.3085 10.7231 46.3085Z" fill="#19A0E6"/>
<path d="M34.5442 52.9999C40.8787 52.9999 46.0138 47.9872 46.0138 41.8037C46.0138 35.6202 40.8787 30.6074 34.5442 30.6074C28.2098 30.6074 23.0747 35.6202 23.0747 41.8037C23.0747 47.9872 28.2098 52.9999 34.5442 52.9999Z" fill="#19A0E6"/>
<path d="M70.1066 16.9599H68.7493L68.5457 15.1049H62.3698V4.70361H64.27V13.3824H67.0526V4.70361H68.9529V13.3824H70.0387L70.1066 16.9599Z" fill="#232323"/>
<path d="M71.8032 4.70361H77.1647V6.42611H73.7035V9.00986H76.8254V10.7324H73.7035V13.4486H77.1647V15.1711H71.7354L71.8032 4.70361Z" fill="#232323"/>
<path d="M84.2229 10.6661H81.3046V15.1049H79.4043V4.70361H81.3046V9.00986H84.2229V4.70361H86.1231V15.1711H84.2229V10.6661Z" fill="#232323"/>
<path d="M94.8103 6.42611H92.2992V15.1049H90.3989V6.42611H87.8199V4.70361H94.8103V6.42611Z" fill="#232323"/>
<path d="M96.4391 4.76988C96.7784 4.70363 97.1856 4.63738 97.6607 4.57113C98.1358 4.50488 98.543 4.50488 98.9502 4.50488C99.4252 4.50488 99.9003 4.57113 100.308 4.63738C100.783 4.70363 101.19 4.90238 101.529 5.10113C101.868 5.36613 102.14 5.69738 102.411 6.16113C102.615 6.62488 102.751 7.22113 102.751 7.94988C102.751 8.61238 102.683 9.14238 102.479 9.60613C102.276 10.0699 102.004 10.4674 101.733 10.7324C101.461 10.9974 101.054 11.1961 100.647 11.3286C100.24 11.4611 99.8324 11.5274 99.3574 11.5274C99.2895 11.5274 99.2216 11.5274 99.1538 11.5274C99.0859 11.5274 98.9502 11.5274 98.8823 11.5274C98.8144 11.5274 98.6787 11.5274 98.6108 11.5274C98.543 11.5274 98.4072 11.5274 98.4072 11.4611V15.0386H96.4391V4.76988ZM98.4072 9.87113C98.4751 9.87113 98.6108 9.93738 98.7466 9.93738C98.8823 9.93738 99.018 9.93738 99.0859 9.93738C99.2895 9.93738 99.561 9.87113 99.6967 9.87113C99.9003 9.80488 100.104 9.67238 100.24 9.53988C100.375 9.40738 100.511 9.20863 100.579 8.94363C100.647 8.67863 100.715 8.34738 100.715 7.94988C100.715 7.61863 100.647 7.35363 100.579 7.08863C100.511 6.88988 100.375 6.69113 100.24 6.55863C100.104 6.42613 99.9003 6.35988 99.7646 6.29363C99.561 6.22738 99.3574 6.22738 99.1538 6.22738C98.8144 6.22738 98.543 6.22738 98.4072 6.29363V9.87113Z" fill="#232323"/>
<path d="M67.4598 26.1022L67.5955 24.6447H67.5276L66.9168 26.2347L63.8628 31.6672H62.3698V21.266H64.27V26.6985L64.0664 28.2222H64.1343L64.7451 26.566L67.7991 21.1997H69.2922V31.6672H67.4598V26.1022Z" fill="#232323"/>
<path d="M76.7576 27.2949H73.8394V31.7336H71.9391V21.2661H73.8394V25.5724H76.7576V21.2661H78.6579V31.7336H76.7576V27.2949Z" fill="#232323"/>
<path d="M84.6301 30.5412C84.4944 30.6074 84.2908 30.6074 84.1551 30.6074C83.9515 30.6074 83.8157 30.6074 83.6121 30.6074C83.2049 30.6074 82.8656 30.5412 82.4584 30.3424C82.1191 30.2099 81.8476 29.9449 81.5761 29.6137C81.3047 29.2824 81.101 28.8187 80.9653 28.3549C80.8296 27.8249 80.7617 27.2287 80.7617 26.4337C80.7617 25.0424 81.0332 23.9824 81.5761 23.1874C82.1191 22.4587 82.8656 22.0612 83.8157 22.0612C83.8836 22.0612 84.0193 22.0612 84.2229 22.0612C84.4265 22.0612 84.4944 22.1274 84.6301 22.1274V20.8687H86.5304V22.1937C86.6662 22.1274 86.8697 22.1274 87.0733 22.1274C87.2769 22.1274 87.4805 22.1274 87.6163 22.1274C88.0235 22.1274 88.3628 22.1937 88.77 22.3924C89.1094 22.5912 89.3808 22.7899 89.6523 23.1874C89.9238 23.5187 90.1274 23.9824 90.2631 24.5124C90.3988 25.0424 90.4667 25.6387 90.4667 26.3674C90.4667 27.0962 90.3988 27.7587 90.2631 28.2887C90.1274 28.8187 89.9238 29.2824 89.6523 29.6137C89.3808 29.9449 89.0415 30.2099 88.7022 30.4087C88.3628 30.6074 87.9556 30.6737 87.5484 30.6737C87.4127 30.6737 87.2091 30.6737 87.0733 30.6737C86.9376 30.6737 86.8019 30.6074 86.6661 30.6074V32.0649H84.7659L84.6301 30.5412ZM84.0872 29.0174C84.1551 29.0174 84.2908 29.0174 84.3587 29.0174C84.4944 29.0174 84.5623 29.0174 84.698 28.9512V23.7837C84.6301 23.7837 84.4944 23.7837 84.4265 23.7837C84.3587 23.7837 84.2229 23.7837 84.1551 23.7837C83.68 23.7837 83.3407 23.9824 83.0692 24.3799C82.7977 24.7774 82.662 25.5062 82.662 26.4337C82.662 27.2949 82.7977 27.8912 83.0013 28.3549C83.3407 28.8187 83.68 29.0174 84.0872 29.0174ZM87.1412 23.7837C87.0733 23.7837 86.9376 23.7837 86.8019 23.7837C86.6661 23.7837 86.5304 23.8499 86.4625 23.8499V28.9512C86.5304 28.9512 86.5983 29.0174 86.734 29.0174C86.8019 29.0174 86.9376 29.0174 87.0733 29.0174C87.5484 29.0174 87.8878 28.8187 88.1592 28.4212C88.4307 28.0237 88.5664 27.2949 88.5664 26.3674C88.5664 25.5724 88.4307 24.9099 88.2271 24.4462C87.9556 23.9824 87.6163 23.7837 87.1412 23.7837Z" fill="#232323"/>
<path d="M92.2992 26.4335C92.2992 24.6447 92.6385 23.3197 93.2493 22.3922C93.8601 21.4647 94.8103 21.001 96.0997 21.001C96.7784 21.001 97.3214 21.1335 97.7964 21.3985C98.2715 21.6635 98.6787 21.9947 98.9502 22.4585C99.2895 22.9222 99.4931 23.5185 99.6288 24.181C99.7646 24.8435 99.8324 25.5722 99.8324 26.4335C99.8324 28.2222 99.4931 29.5472 98.8823 30.4747C98.2715 31.4022 97.3214 31.866 96.0319 31.866C95.3532 31.866 94.8103 31.7335 94.3352 31.4685C93.8601 31.2035 93.4529 30.8722 93.1815 30.4085C92.8421 29.9447 92.6385 29.3485 92.5028 28.686C92.3671 28.0235 92.2992 27.2947 92.2992 26.4335ZM94.3352 26.4335C94.3352 26.9635 94.4031 27.4272 94.4031 27.891C94.4031 28.3547 94.5388 28.7522 94.7424 29.0835C94.8781 29.4147 95.0817 29.6797 95.2853 29.8785C95.4889 30.0772 95.7604 30.1435 96.0997 30.1435C96.7105 30.1435 97.1178 29.8785 97.3892 29.2822C97.6607 28.686 97.8643 27.7585 97.8643 26.4335C97.8643 25.9035 97.7964 25.4397 97.7964 24.976C97.7286 24.5122 97.6607 24.1147 97.525 23.7835C97.3892 23.4522 97.1856 23.1872 96.982 22.9885C96.7784 22.7897 96.507 22.7235 96.1676 22.7235C94.946 22.7897 94.3352 23.9822 94.3352 26.4335Z" fill="#232323"/>
<path d="M101.868 21.3324C102.208 21.2661 102.615 21.1999 103.09 21.1336C103.565 21.0674 103.972 21.0674 104.379 21.0674C104.855 21.0674 105.33 21.1336 105.737 21.1999C106.212 21.2661 106.619 21.4649 106.958 21.6636C107.298 21.9286 107.569 22.2599 107.841 22.7236C108.044 23.1874 108.18 23.7836 108.18 24.5124C108.18 25.1749 108.112 25.7049 107.909 26.1686C107.705 26.6324 107.434 27.0299 107.162 27.2949C106.823 27.5599 106.483 27.7586 106.076 27.8911C105.669 28.0236 105.262 28.0899 104.787 28.0899C104.719 28.0899 104.651 28.0899 104.583 28.0899C104.515 28.0899 104.379 28.0899 104.312 28.0899C104.176 28.0899 104.108 28.0899 104.04 28.0899C103.972 28.0899 103.837 28.0899 103.837 28.0236V31.6011H101.936L101.868 21.3324ZM103.769 26.4336C103.837 26.4336 103.972 26.4999 104.108 26.4999C104.312 26.4999 104.379 26.4999 104.447 26.4999C104.651 26.4999 104.922 26.4336 105.058 26.4336C105.262 26.3674 105.465 26.2349 105.601 26.1024C105.737 25.9699 105.873 25.7711 105.94 25.5061C106.008 25.2411 106.076 24.9099 106.076 24.5124C106.076 24.1811 106.008 23.9161 105.94 23.6511C105.873 23.4524 105.737 23.2536 105.601 23.1211C105.465 22.9886 105.262 22.9224 105.126 22.8561C104.922 22.7899 104.719 22.7899 104.515 22.7899C104.176 22.7899 103.904 22.7899 103.769 22.8561V26.4336Z" fill="#232323"/>
<path d="M117.139 26.301L117.342 24.3135H117.274L116.731 26.1022L114.967 29.746H114.356L112.524 26.036L111.981 24.2472H111.913L112.184 26.2347V31.601H110.352V21.266H112.184L114.424 25.771L114.763 27.0297H114.831L115.17 25.7047L117.274 21.1997H119.107V31.6672H117.206L117.139 26.301Z" fill="#232323"/>
<path d="M125.893 29.2825H123.382L122.771 31.6675H120.871L123.993 21.1338H125.486L128.608 31.6675H126.572L125.893 29.2825ZM123.789 27.7588H125.554L124.943 25.3075L124.672 23.6513H124.604L124.332 25.3075L123.789 27.7588Z" fill="#232323"/>
<path d="M138.109 33.5886H136.752L136.548 31.7336H130.373V21.2661H132.273V29.9449H135.055V21.2661H136.956V29.9449H138.042L138.109 33.5886Z" fill="#232323"/>
<path d="M145.168 26.1024L145.303 24.6449H145.236L144.625 26.2349L141.571 31.6674H140.078V21.2661H141.978V26.6986L141.774 28.2224H141.842L142.453 26.6324L145.507 21.2661H147V31.7336H145.1L145.168 26.1024Z" fill="#232323"/>
<path d="M149.375 26.4335C149.375 24.6447 149.715 23.3197 150.326 22.3922C150.936 21.4647 151.886 21.001 153.176 21.001C153.855 21.001 154.398 21.1335 154.873 21.3985C155.348 21.6635 155.755 21.9947 156.026 22.4585C156.366 22.9222 156.569 23.5185 156.705 24.181C156.841 24.8435 156.909 25.5722 156.909 26.4335C156.909 28.2222 156.569 29.5472 155.958 30.4747C155.348 31.4022 154.398 31.866 153.108 31.866C152.429 31.866 151.886 31.7335 151.411 31.4685C150.936 31.2035 150.529 30.8722 150.258 30.4085C149.918 29.9447 149.715 29.3485 149.579 28.686C149.443 28.0235 149.375 27.2947 149.375 26.4335ZM151.411 26.4335C151.411 26.9635 151.479 27.4272 151.479 27.891C151.547 28.3547 151.615 28.7522 151.819 29.0835C151.954 29.4147 152.158 29.6797 152.362 29.8785C152.565 30.0772 152.837 30.1435 153.176 30.1435C153.787 30.1435 154.194 29.8785 154.465 29.2822C154.737 28.686 154.94 27.7585 154.94 26.4335C154.94 25.9035 154.873 25.4397 154.873 24.976C154.805 24.5122 154.737 24.1147 154.601 23.7835C154.465 23.4522 154.262 23.1872 154.058 22.9885C153.855 22.7897 153.583 22.7235 153.244 22.7235C152.022 22.7897 151.411 23.9822 151.411 26.4335Z" fill="#232323"/>
<path d="M164.102 27.2949H161.184V31.7336H159.284V21.2661H161.184V25.5724H164.102V21.2661H166.003V31.7336H164.102V27.2949Z" fill="#232323"/>
<path d="M173.4 27.2949H170.482V31.7336H168.582V21.2661H170.482V25.5724H173.4V21.2661H175.301V31.7336H173.4V27.2949Z" fill="#232323"/>
<path d="M177.812 21.2661H179.712V25.0424C179.78 25.0424 179.983 24.9761 180.187 24.9761C180.391 24.9099 180.594 24.9099 180.798 24.9099C181.205 24.9099 181.612 24.9761 182.019 25.0424C182.359 25.1086 182.698 25.3074 182.97 25.5724C183.241 25.8374 183.445 26.1686 183.648 26.5661C183.784 27.0299 183.92 27.5599 183.92 28.2224C183.92 29.4811 183.648 30.3424 183.037 30.9386C182.427 31.5349 181.544 31.8661 180.255 31.8661C180.119 31.8661 179.983 31.8661 179.78 31.8661C179.576 31.8661 179.373 31.8661 179.169 31.7999C178.965 31.7336 178.694 31.7336 178.49 31.7336C178.287 31.7336 178.015 31.6674 177.812 31.6011V21.2661ZM179.78 30.0111C179.848 30.0774 179.983 30.0774 180.119 30.0774C180.255 30.0774 180.391 30.0774 180.526 30.0774C181.001 30.0774 181.341 29.9449 181.612 29.6799C181.884 29.4149 182.019 28.9511 182.019 28.2886C182.019 27.9574 181.952 27.6924 181.884 27.4274C181.816 27.2286 181.68 27.0299 181.612 26.8974C181.476 26.7649 181.341 26.6986 181.137 26.6324C180.934 26.5661 180.798 26.5661 180.526 26.5661C180.458 26.5661 180.323 26.5661 180.119 26.6324C179.983 26.6986 179.848 26.6986 179.78 26.6986V30.0111ZM184.734 21.2661H186.634V31.7336H184.734V21.2661Z" fill="#232323"/>
<path d="M190.774 26.3674L188.399 21.2661H190.706L191.928 24.2474L192.199 25.3736L192.471 24.2474L193.76 21.2661H195.864L193.421 26.3011L196 31.7336H193.76L192.335 28.4874L191.996 27.2949L191.657 28.4874L190.231 31.7336H188.127L190.774 26.3674Z" fill="#232323"/>
<path d="M69.4279 39.5511H66.9169V48.2299H65.0166V39.5511H62.5055V37.8286H69.4958C69.4279 37.8286 69.4279 39.5511 69.4279 39.5511Z" fill="#232323"/>
<path d="M71.6676 37.8286H77.0291V39.5511H73.5679V42.1349H76.6898V43.8574H73.5679V46.5736H77.0291V48.2961H71.5997C71.6676 48.2961 71.6676 37.8286 71.6676 37.8286Z" fill="#232323"/>
<path d="M80.9653 42.9299L78.5899 37.8286H80.8974L82.119 40.8099L82.3905 41.9361L82.662 40.8099L83.9514 37.8286H86.0553L83.6121 42.8636L86.1911 48.2961H83.9514L82.5262 45.0499L82.1869 43.8574L81.9154 45.0499L80.4902 48.2961H78.3185L80.9653 42.9299Z" fill="#232323"/>
<path d="M92.9779 43.8574H90.0596V48.2961H88.1593V37.8286H90.0596V42.1349H92.9779V37.8286H94.8781V48.2961H92.9779V43.8574Z" fill="#232323"/>
<path d="M97.0498 43.0624C97.0498 41.2736 97.3891 39.9486 97.9999 39.0211C98.6107 38.0936 99.5609 37.6299 100.85 37.6299C101.529 37.6299 102.072 37.7624 102.547 38.0274C103.022 38.2924 103.429 38.6236 103.701 39.0874C104.04 39.5511 104.244 40.1474 104.379 40.8099C104.515 41.4724 104.583 42.2011 104.583 43.0624C104.583 44.8511 104.244 46.1761 103.633 47.1036C103.022 48.0311 102.072 48.4949 100.782 48.4949C100.104 48.4949 99.5609 48.3624 99.0858 48.0974C98.6107 47.8324 98.2035 47.5011 97.9321 47.0374C97.5927 46.5736 97.3891 45.9774 97.2534 45.3149C97.1177 44.6524 97.0498 43.8574 97.0498 43.0624ZM99.0858 43.0624C99.0858 43.5924 99.1537 44.0561 99.1537 44.5199C99.2215 44.9836 99.2894 45.3811 99.493 45.7124C99.6287 46.0436 99.8324 46.3086 100.036 46.5074C100.24 46.7061 100.511 46.7724 100.85 46.7724C101.461 46.7724 101.868 46.5074 102.14 45.9111C102.411 45.3149 102.615 44.3874 102.615 43.0624C102.615 42.5324 102.547 42.0686 102.547 41.6049C102.479 41.1411 102.411 40.7436 102.276 40.4124C102.14 40.0811 101.936 39.8161 101.733 39.6174C101.529 39.4186 101.258 39.3524 100.918 39.3524C99.6966 39.3524 99.0858 40.6111 99.0858 43.0624Z" fill="#232323"/>
<path d="M110.895 39.551H109.266C109.198 41.4722 109.062 42.996 108.995 44.2547C108.859 45.5135 108.655 46.5072 108.316 47.1697C108.18 47.4347 108.044 47.6335 107.909 47.766C107.773 47.8985 107.569 48.031 107.434 48.0972C107.298 48.1635 107.094 48.2297 106.959 48.296C106.823 48.3622 106.619 48.3622 106.483 48.3622C106.28 48.3622 106.076 48.3622 105.941 48.296C105.805 48.2297 105.601 48.2297 105.465 48.1635L105.669 46.441C105.873 46.5072 106.008 46.5072 106.212 46.441C106.416 46.3747 106.551 46.2422 106.687 45.9772C106.823 45.7785 106.891 45.4472 107.026 44.9835C107.094 44.586 107.23 43.9897 107.23 43.3272C107.298 42.6647 107.366 41.8697 107.366 40.9422C107.434 40.0147 107.434 38.9547 107.434 37.7622H112.795V48.2297H110.895V39.551Z" fill="#232323"/>
<path d="M114.967 43.0624C114.967 41.2736 115.306 39.9486 115.917 39.0211C116.528 38.0936 117.478 37.6299 118.767 37.6299C119.446 37.6299 119.989 37.7624 120.464 38.0274C120.939 38.2924 121.346 38.6236 121.618 39.0874C121.957 39.5511 122.161 40.1474 122.296 40.8099C122.432 41.4724 122.5 42.2011 122.5 43.0624C122.5 44.8511 122.161 46.1761 121.55 47.1036C120.939 48.0311 119.989 48.4949 118.699 48.4949C118.021 48.4949 117.478 48.3624 117.003 48.0974C116.528 47.8324 116.12 47.5011 115.849 47.0374C115.51 46.5736 115.306 45.9774 115.17 45.3149C115.035 44.6524 114.967 43.8574 114.967 43.0624ZM116.935 43.0624C116.935 43.5924 117.003 44.0561 117.003 44.5199C117.071 44.9836 117.138 45.3811 117.342 45.7124C117.478 46.0436 117.681 46.3086 117.885 46.5074C118.089 46.7061 118.36 46.7724 118.699 46.7724C119.31 46.7724 119.717 46.5074 119.989 45.9111C120.26 45.3149 120.464 44.3874 120.464 43.0624C120.464 42.5324 120.396 42.0686 120.396 41.6049C120.396 41.1411 120.26 40.7436 120.125 40.4124C119.989 40.0811 119.785 39.8161 119.582 39.6174C119.378 39.4186 119.107 39.3524 118.767 39.3524C117.546 39.3524 116.935 40.6111 116.935 43.0624Z" fill="#232323"/>
<path d="M129.558 39.5511H126.233V48.2299H124.332V37.8286H129.558V39.5511Z" fill="#232323"/>
<path d="M136.073 42.731L136.209 41.2735H136.141L135.53 42.8635L132.476 48.296H130.983V37.8285H132.884V43.261L132.68 44.7847H132.748L133.359 43.1285L136.413 37.7622H137.906V48.2297H136.006L136.073 42.731Z" fill="#232323"/>
<path d="M145.236 42.7311L145.371 41.2736H145.303L144.693 42.8636L141.639 48.2961H140.146V37.8286H142.046V43.2611L141.842 44.7848H141.91L142.521 43.1286L145.575 37.7623H147.068V48.2298H145.168L145.236 42.7311ZM143.064 35.1123C143.132 35.7086 143.403 36.0398 143.946 36.0398C144.421 36.0398 144.76 35.7086 144.828 35.1786L146.389 35.3773C146.321 36.0398 146.05 36.5036 145.643 36.7686C145.236 37.0336 144.625 37.2323 143.946 37.2323C143.607 37.2323 143.267 37.1661 142.928 37.1661C142.657 37.0998 142.385 37.0336 142.182 36.8348C141.978 36.7023 141.774 36.5036 141.639 36.3048C141.503 36.1061 141.435 35.7748 141.367 35.4436L143.064 35.1123Z" fill="#232323"/>
</svg>
